<svg width="80" height="45" viewBox="0 0 80 45" fill="none" xmlns="http://www.w3.org/2000/svg">
<g clip-path="url(#clip0_1_2977)">
<path d="M56.484 28.9039C55.3818 29.1565 52.4807 29.302 52.4807 29.302L52.1133 30.4502C52.1133 30.4502 53.56 30.3277 54.6163 30.4349C54.6163 30.4349 54.9608 30.3966 54.999 30.8252C55.0061 31.1012 54.9959 31.3773 54.9684 31.6519C54.9684 31.6519 54.9455 31.9122 54.578 31.9734C54.18 32.0423 51.455 32.1418 51.455 32.1418L51.011 33.6344C51.011 33.6344 50.8503 33.9789 51.2177 33.8794C51.5622 33.7875 54.4173 33.2517 54.7924 33.3283C55.1904 33.4278 55.6344 33.9559 55.5042 34.4458C55.3511 35.0429 52.5037 36.8647 50.7661 36.7345C50.7661 36.7345 49.8552 36.7958 49.0821 35.5634C48.3626 34.3922 49.3577 32.1648 49.3577 32.1648C49.3577 32.1648 48.906 31.1238 49.2352 30.7793C49.2352 30.7793 49.4342 30.6033 50.0006 30.5573L50.6972 29.1106C50.6972 29.1106 49.9011 29.1642 49.4265 28.5825C48.9826 28.0237 48.952 27.7711 49.2888 27.618C49.6485 27.4419 52.9629 26.8372 55.244 26.9138C55.244 26.9138 56.0401 26.8372 56.7213 28.215C56.7136 28.215 57.0504 28.7738 56.484 28.9039ZM47.9033 34.4611C47.6124 35.15 46.8393 35.8849 45.8825 35.4256C44.9257 34.9663 43.4254 31.8816 43.4254 31.8816C43.4254 31.8816 42.8513 30.7334 42.7441 30.7563C42.7441 30.7563 42.6217 30.5344 42.5451 31.7897C42.4686 33.045 42.5604 35.4868 42.0629 35.8696C41.5883 36.2523 41.0142 36.0992 40.7157 35.6476C40.4478 35.2036 40.333 34.1473 40.4784 32.2949C40.6545 30.4425 41.0831 28.4676 41.6342 27.8476C42.1854 27.2276 42.6293 27.6792 42.7977 27.84C42.7977 27.84 43.5326 28.5059 44.7496 30.4655L44.964 30.8252C44.964 30.8252 46.0662 32.6776 46.181 32.67C46.181 32.67 46.2729 32.7542 46.3494 32.6929C46.4642 32.6623 46.4183 32.0653 46.4183 32.0653C46.4183 32.0653 46.1887 30.0521 45.1859 26.6382C45.1859 26.6382 45.0328 26.2096 45.14 25.8115C45.2472 25.4135 45.6452 25.5972 45.6452 25.5972C45.6452 25.5972 47.2067 26.378 47.9569 28.9193C48.6994 31.4835 48.1942 33.7722 47.9033 34.4611ZM40.2335 27.9318C40.1033 28.1921 40.0268 28.5671 39.3685 28.6667C39.3685 28.6667 33.0688 29.0953 32.7703 29.5393C32.7703 29.5393 32.5483 29.7995 32.8928 29.8761C33.2372 29.9526 34.661 30.1363 35.3499 30.1746C36.0847 30.1823 38.5648 30.2052 39.4527 31.3151C39.4527 31.3151 39.9809 31.8433 39.9579 33.0374C39.9349 34.2621 39.7206 34.6908 39.246 35.1347C38.7485 35.5481 34.4773 37.4617 31.7216 34.5224C31.7216 34.5224 30.451 33.1063 32.158 32.0346C32.158 32.0346 33.3903 31.2922 36.521 32.1648C36.521 32.1648 37.4702 32.5092 37.4243 32.8537C37.3707 33.2211 36.6435 33.6115 35.5872 33.5885C34.5615 33.5579 33.8113 33.068 33.9568 33.1446C34.0945 33.1981 32.8545 32.5475 32.4718 32.9915C32.0891 33.3972 32.1809 33.6497 32.556 33.9023C33.5128 34.4458 37.2099 34.2545 38.3122 33.0297C38.3122 33.0297 38.7485 32.5322 38.0826 32.1265C37.4166 31.7438 35.5106 31.5141 34.7681 31.4759C34.0563 31.4376 31.4078 31.4835 31.0251 30.7793C31.0251 30.7793 30.6424 30.3047 31.0634 28.9575C31.5073 27.5491 34.5921 27.0056 35.924 26.8832C35.924 26.8832 39.5905 26.753 40.2641 27.5032C40.3096 27.6447 40.2986 27.7983 40.2335 27.9318ZM29.8233 36.191C29.3794 36.5202 28.4379 36.3748 28.1699 36.0073C27.902 35.6782 27.8102 34.3693 27.8638 32.3179C27.9173 30.2435 27.9633 27.6716 28.4072 27.2659C28.8818 26.8525 29.1727 27.2123 29.3564 27.4955C29.5554 27.7711 29.7927 28.0773 29.8463 28.7279C29.8999 29.3785 30.0453 32.7924 30.0453 32.7924C30.0453 32.7924 30.2443 35.8696 29.8233 36.191ZM30.7801 25.1839C29.4865 25.6125 28.5986 25.4671 27.8485 25.1456C27.5193 25.7197 27.328 25.8957 27.0754 25.934C26.7079 25.9723 26.3788 25.3829 26.3176 25.1915C26.2563 25.0461 26.0803 24.8011 26.2946 24.2194C25.5598 23.5611 25.5062 22.6732 25.6286 22.0761C25.8124 21.3872 27.0524 18.7694 30.8261 18.4632C30.8261 18.4632 32.6708 18.3254 32.9846 19.3128H33.0382C33.0382 19.3128 34.8294 19.3205 34.7911 20.9126C34.7681 22.5124 32.8009 24.5026 30.7801 25.1839ZM27.2591 21.6398C26.8763 22.2522 26.861 22.6196 27.0371 22.8722C27.4734 22.2062 28.2695 21.1576 29.4406 20.3615C28.5374 20.438 27.7796 20.8284 27.2591 21.6398ZM32.4718 20.6141C31.2853 20.7902 29.4483 22.3823 28.5756 23.6836C29.9152 23.9285 32.2804 23.8367 33.3291 21.701C33.3214 21.701 33.8266 20.3768 32.4718 20.6141ZM64.682 32.9455C63.9701 34.1856 61.9723 36.7728 59.3085 36.1681C58.4283 38.3037 57.6934 40.4546 57.2724 43.6848C57.2724 43.6848 57.1806 44.3125 56.6601 44.0905C56.1472 43.9068 55.2899 43.0495 55.1215 41.8631C54.9378 40.3015 55.6344 37.6607 57.0504 34.6372C56.6371 33.9636 56.3539 32.9991 56.5988 31.629C56.5988 31.629 56.9586 29.0877 59.5075 26.7913C59.5075 26.7913 59.8137 26.5234 59.9898 26.6076C60.1888 26.6918 60.0969 27.5185 59.9362 27.9165C59.7755 28.3145 58.6349 30.2894 58.6349 30.2894C58.6349 30.2894 57.9231 31.6213 58.1221 32.67C59.4616 30.6109 62.5081 26.4545 64.3988 27.7634C65.0341 28.215 65.325 29.2025 65.325 30.2665C65.3173 31.208 65.0953 32.203 64.682 32.9455ZM64.1309 29.6847C64.1309 29.6847 64.0237 28.8657 63.2276 29.7689C62.5387 30.5267 61.2987 31.9581 60.296 33.8947C61.3446 33.7799 62.355 33.2058 62.6612 32.9149C63.1588 32.471 64.3146 31.2768 64.1309 29.6847ZM26.9682 30.7257C26.8228 32.5781 26.1109 35.6935 21.0666 37.2321C17.7368 38.2348 14.5908 37.7526 12.8762 37.3163C12.8379 37.9975 12.7614 38.2884 12.6542 38.4032C12.5088 38.5486 11.4219 39.1763 10.8248 38.2884C10.5569 37.8674 10.4191 37.1019 10.3426 36.4207C6.4847 34.6448 4.70885 32.0882 4.63996 31.9734C4.55576 31.8892 3.67549 30.9707 4.55576 29.8455C5.38245 28.8274 8.08449 27.8094 10.5186 27.396C10.6028 25.314 10.8478 23.7448 11.1386 23.0253C11.4908 22.1909 11.9347 22.9411 12.3174 23.5075C12.6389 23.9285 12.8303 25.7426 12.8456 27.1893C14.4377 27.1128 15.3792 27.2276 17.1551 27.5491C19.4668 27.9701 21.013 29.1489 20.8752 30.4884C20.7757 31.805 19.5663 32.3485 19.107 32.3868C18.6248 32.425 17.8746 32.0806 17.8746 32.0806C17.3618 31.8356 17.8363 31.6213 18.4564 31.3534C19.13 31.0242 18.9769 30.6875 18.9769 30.6875C18.7243 29.9526 15.7237 29.4398 12.7384 29.4398C12.7231 31.0855 12.8073 33.8181 12.8456 35.4103C14.9353 35.8083 16.4968 35.7318 16.4968 35.7318C16.4968 35.7318 24.1207 35.5175 24.3503 30.6492C24.58 25.7809 16.7494 21.0963 10.9549 19.6114C5.16812 18.0958 1.89199 19.1521 1.60877 19.2975C1.30259 19.4506 1.5858 19.4965 1.5858 19.4965C1.87732 19.5497 2.16403 19.6265 2.44311 19.7262C3.0172 19.9099 2.57324 20.2084 2.57324 20.2084C1.5858 20.5222 0.475899 20.3232 0.261573 19.8716C0.0472461 19.42 0.407008 19.0143 0.820352 18.4326C1.2337 17.8202 1.68531 17.8432 1.68531 17.8432C8.84229 15.3631 17.5608 19.8487 17.5608 19.8487C25.7282 23.9897 27.1213 28.8427 26.9682 30.7257ZM5.36714 30.4731C4.55576 30.8712 5.11454 31.4452 5.11454 31.4452C6.63779 33.0833 8.51314 34.109 10.2966 34.7443C10.5033 31.9198 10.4727 30.9247 10.4957 29.501C7.70942 29.6924 6.10197 30.1363 5.36714 30.4731Z" fill="white"/>
<path d="M79.8379 29.8914V30.9018C79.8383 30.9542 79.8283 31.0061 79.8085 31.0546C79.7886 31.1031 79.7593 31.1471 79.7223 31.1841C79.6852 31.2212 79.6412 31.2505 79.5927 31.2703C79.5442 31.2902 79.4923 31.3002 79.4399 31.2998H74.6252C74.6252 31.5524 74.6329 31.7744 74.6329 31.9811C74.6397 33.3438 74.5707 34.7059 74.4262 36.0609C74.417 36.1585 74.372 36.2492 74.2999 36.3156C74.2279 36.382 74.1338 36.4194 74.0358 36.4207H72.9948C72.9428 36.4207 72.8915 36.4099 72.844 36.3888C72.7965 36.3677 72.754 36.3368 72.7192 36.2982C72.6838 36.2593 72.6572 36.2131 72.6413 36.1629C72.6255 36.1127 72.6207 36.0596 72.6274 36.0073C72.7739 34.6703 72.8455 33.3261 72.8417 31.9811C72.8417 31.7667 72.8417 31.5448 72.8341 31.2998H68.0729C68.0206 31.3002 67.9686 31.2902 67.9201 31.2703C67.8717 31.2505 67.8276 31.2212 67.7906 31.1841C67.7535 31.1471 67.7242 31.1031 67.7044 31.0546C67.6845 31.0061 67.6745 30.9542 67.6749 30.9018V29.8914C67.6745 29.839 67.6845 29.7871 67.7044 29.7386C67.7242 29.6901 67.7535 29.6461 67.7906 29.609C67.8276 29.572 67.8717 29.5427 67.9201 29.5228C67.9686 29.503 68.0206 29.4929 68.0729 29.4934H72.7652C72.6703 27.8684 72.4632 26.252 72.1451 24.6557C72.1369 24.6075 72.1387 24.5581 72.1506 24.5107C72.1624 24.4632 72.184 24.4188 72.214 24.3801C72.2442 24.342 72.2826 24.3112 72.3263 24.29C72.3701 24.2688 72.418 24.2578 72.4666 24.2577H73.5918C73.6771 24.2581 73.7596 24.2881 73.8252 24.3425C73.8908 24.3969 73.9355 24.4725 73.9516 24.5562C74.2611 26.1871 74.4656 27.8362 74.564 29.4934H79.4399C79.5449 29.4951 79.6451 29.5376 79.7194 29.6119C79.7937 29.6862 79.8362 29.7864 79.8379 29.8914Z" fill="white"/>
<path d="M73.2857 21.8771C70.9856 16.22 67.187 11.2968 62.2985 7.6368C57.41 3.97679 51.6164 1.71841 45.5405 1.10445C39.4646 0.490483 33.3363 1.54416 27.8144 4.15219C22.2925 6.76023 17.5858 10.824 14.2005 15.9066C14.1668 15.9566 14.1452 16.0137 14.1372 16.0734C14.1293 16.1332 14.1352 16.1939 14.1545 16.251C14.1725 16.3086 14.2042 16.3609 14.2469 16.4036C14.2895 16.4463 14.3419 16.4779 14.3995 16.496L15.2721 16.7945C15.3218 16.809 15.3733 16.8168 15.4252 16.8175C15.5049 16.8163 15.5833 16.7963 15.6538 16.7591C15.7243 16.7218 15.785 16.6684 15.8309 16.6031C18.7467 12.3062 22.6704 8.78852 27.2591 6.35741C31.8477 3.92631 36.9619 2.65571 42.1548 2.65659C48.4112 2.65766 54.5288 4.50142 59.7439 7.95773C64.959 11.414 69.0406 16.3298 71.4792 22.0914C71.5138 22.1748 71.5722 22.2461 71.6471 22.2964C71.7219 22.3468 71.81 22.374 71.9002 22.3746H72.9412C73.0005 22.3753 73.059 22.3609 73.1112 22.3327C73.1634 22.3046 73.2077 22.2637 73.2398 22.2139C73.2767 22.1669 73.3005 22.111 73.3086 22.0517C73.3166 21.9925 73.3087 21.9322 73.2857 21.8771ZM71.6859 22.2369C71.7071 22.2525 71.7303 22.2653 71.7548 22.2751C71.7318 22.2598 71.7089 22.2522 71.6859 22.2369Z" fill="url(#paint0_radial_1_2977)"/>
</g>
<defs>
<radialGradient id="paint0_radial_1_2977" cx="0" cy="0" r="1" gradientUnits="userSpaceOnUse" gradientTransform="translate(72.3074 22.3364) scale(58.1835 58.1835)">
<stop offset="0.01" stop-color="white"/>
<stop offset="0.03" stop-color="#CBFFFF"/>
<stop offset="0.06" stop-color="#96FFFF"/>
<stop offset="0.08" stop-color="#68FFFF"/>
<stop offset="0.11" stop-color="#43FFFF"/>
<stop offset="0.14" stop-color="#25FFFF"/>
<stop offset="0.16" stop-color="#11FFFF"/>
<stop offset="0.19" stop-color="#04FFFF"/>
<stop offset="0.22" stop-color="#00FFFF"/>
<stop offset="1" stop-color="#0000FF" stop-opacity="0"/>
</radialGradient>
<clipPath id="clip0_1_2977">
<rect width="79.9821" height="43.5312" fill="white" transform="translate(0.00897217 0.78125)"/>
</clipPath>
</defs>
</svg>
